<?xml version="1.0" encoding="UTF-8" standalone="no"?>
<svg
   xmlns:dc="http://purl.org/dc/elements/1.1/"
   xmlns:cc="http://creativecommons.org/ns#"
   xmlns:rdf="http://www.w3.org/1999/02/22-rdf-syntax-ns#"
   xmlns:svg="http://www.w3.org/2000/svg"
   xmlns="http://www.w3.org/2000/svg"
   xmlns:xlink="http://www.w3.org/1999/xlink"
   id="svg8"
   version="1.1"
   viewBox="0 0 264.58334 158.75"
   height="600"
   width="1000">
  <defs
     id="defs2">
    <marker
       orient="auto"
       refY="0.0"
       refX="0.0"
       id="marker1114"
       style="overflow:visible">
      <path
         id="path1112"
         d="M 5.77,0.0 L -2.88,5.0 L -2.88,-5.0 L 5.77,0.0 z "
         style="fill-rule:evenodd;stroke:#3a86ac;stroke-width:1pt;stroke-opacity:1;fill:#3a86ac;fill-opacity:1"
         transform="scale(-0.8)" />
    </marker>
    <marker
       style="overflow:visible"
       id="marker2714"
       refX="0.0"
       refY="0.0"
       orient="auto">
      <path
         transform="scale(-0.8)"
         style="fill-rule:evenodd;stroke:#998966;stroke-width:1pt;stroke-opacity:1;fill:#998966;fill-opacity:1"
         d="M 5.77,0.0 L -2.88,5.0 L -2.88,-5.0 L 5.77,0.0 z "
         id="path2712" />
    </marker>
    <marker
       orient="auto"
       refY="0.0"
       refX="0.0"
       id="marker2475"
       style="overflow:visible">
      <path
         id="path2473"
         d="M 5.77,0.0 L -2.88,5.0 L -2.88,-5.0 L 5.77,0.0 z "
         style="fill-rule:evenodd;stroke:#998966;stroke-width:1pt;stroke-opacity:1;fill:#998966;fill-opacity:1"
         transform="scale(-0.8)" />
    </marker>
    <marker
       style="overflow:visible"
       id="marker2324"
       refX="0.0"
       refY="0.0"
       orient="auto">
      <path
         transform="scale(-0.8)"
         style="fill-rule:evenodd;stroke:#998966;stroke-width:1pt;stroke-opacity:1;fill:#998966;fill-opacity:1"
         d="M 5.77,0.0 L -2.88,5.0 L -2.88,-5.0 L 5.77,0.0 z "
         id="path2322" />
    </marker>
    <marker
       style="overflow:visible"
       id="marker2092"
       refX="0.0"
       refY="0.0"
       orient="auto">
      <path
         transform="scale(-0.8)"
         style="fill-rule:evenodd;stroke:#ffffff;stroke-width:1pt;stroke-opacity:1;fill:#ffffff;fill-opacity:1"
         d="M 5.77,0.0 L -2.88,5.0 L -2.88,-5.0 L 5.77,0.0 z "
         id="path2090" />
    </marker>
    <marker
       style="overflow:visible"
       id="marker2022"
       refX="0.0"
       refY="0.0"
       orient="auto">
      <path
         transform="scale(-0.8)"
         style="fill-rule:evenodd;stroke:#000000;stroke-width:1pt;stroke-opacity:1;fill:#ffffff;fill-opacity:1"
         d="M 5.77,0.0 L -2.88,5.0 L -2.88,-5.0 L 5.77,0.0 z "
         id="path2020" />
    </marker>
    <marker
       style="overflow:visible"
       id="marker1964"
       refX="0.0"
       refY="0.0"
       orient="auto">
      <path
         transform="scale(-0.8)"
         style="fill-rule:evenodd;stroke:#000000;stroke-width:1pt;stroke-opacity:1;fill:#ffffff;fill-opacity:1"
         d="M 5.77,0.0 L -2.88,5.0 L -2.88,-5.0 L 5.77,0.0 z "
         id="path1962" />
    </marker>
    <marker
       style="overflow:visible"
       id="marker1912"
       refX="0.0"
       refY="0.0"
       orient="auto">
      <path
         transform="scale(-0.8)"
         style="fill-rule:evenodd;stroke:#000000;stroke-width:1pt;stroke-opacity:1;fill:#ffffff;fill-opacity:1"
         d="M 5.77,0.0 L -2.88,5.0 L -2.88,-5.0 L 5.77,0.0 z "
         id="path1910" />
    </marker>
    <marker
       style="overflow:visible"
       id="marker1810"
       refX="0.0"
       refY="0.0"
       orient="auto">
      <path
         transform="scale(-0.8)"
         style="fill-rule:evenodd;stroke:#ffffff;stroke-width:1pt;stroke-opacity:1;fill:#ffffff;fill-opacity:1"
         d="M 5.77,0.0 L -2.88,5.0 L -2.88,-5.0 L 5.77,0.0 z "
         id="path1808" />
    </marker>
    <marker
       style="overflow:visible"
       id="TriangleInL"
       refX="0.0"
       refY="0.0"
       orient="auto">
      <path
         transform="scale(-0.8)"
         style="fill-rule:evenodd;stroke:#ffffff;stroke-width:1pt;stroke-opacity:1;fill:#ffffff;fill-opacity:1"
         d="M 5.77,0.0 L -2.88,5.0 L -2.88,-5.0 L 5.77,0.0 z "
         id="path1455" />
    </marker>
    <marker
       style="overflow:visible"
       id="marker1666"
       refX="0.0"
       refY="0.0"
       orient="auto">
      <path
         transform="scale(1.1) translate(1,0)"
         d="M 8.7185878,4.0337352 L -2.2072895,0.016013256 L 8.7185884,-4.0017078 C 6.9730900,-1.6296469 6.9831476,1.6157441 8.7185878,4.0337352 z "
         style="fill-rule:evenodd;stroke-width:0.625;stroke-linejoin:round;stroke:#000000;stroke-opacity:1;fill:#000000;fill-opacity:1"
         id="path1664" />
    </marker>
    <marker
       style="overflow:visible"
       id="marker1638"
       refX="0.0"
       refY="0.0"
       orient="auto">
      <path
         transform="scale(1.1) translate(1,0)"
         d="M 8.7185878,4.0337352 L -2.2072895,0.016013256 L 8.7185884,-4.0017078 C 6.9730900,-1.6296469 6.9831476,1.6157441 8.7185878,4.0337352 z "
         style="fill-rule:evenodd;stroke-width:0.625;stroke-linejoin:round;stroke:#000000;stroke-opacity:1;fill:#000000;fill-opacity:1"
         id="path1636" />
    </marker>
    <marker
       style="overflow:visible"
       id="Arrow2Lstart"
       refX="0.0"
       refY="0.0"
       orient="auto">
      <path
         transform="scale(1.1) translate(1,0)"
         d="M 8.7185878,4.0337352 L -2.2072895,0.016013256 L 8.7185884,-4.0017078 C 6.9730900,-1.6296469 6.9831476,1.6157441 8.7185878,4.0337352 z "
         style="fill-rule:evenodd;stroke-width:0.625;stroke-linejoin:round;stroke:#000000;stroke-opacity:1;fill:#000000;fill-opacity:1"
         id="path1340" />
    </marker>
    <marker
       style="overflow:visible"
       id="Arrow1Lstart"
       refX="0.0"
       refY="0.0"
       orient="auto">
      <path
         transform="scale(0.8) translate(12.5,0)"
         style="fill-rule:evenodd;stroke:#000000;stroke-width:1pt;stroke-opacity:1;fill:#000000;fill-opacity:1"
         d="M 0.0,0.0 L 5.0,-5.0 L -12.5,0.0 L 5.0,5.0 L 0.0,0.0 z "
         id="path1322" />
    </marker>
    <linearGradient
       id="linearGradient1051">
      <stop
         id="stop1047"
         offset="0"
         style="stop-color:#ccc4b3;stop-opacity:1;" />
      <stop
         id="stop1049"
         offset="1"
         style="stop-color:#ccc4b3;stop-opacity:0;" />
    </linearGradient>
    <filter
       height="1.0000201"
       y="-1.0056513e-05"
       width="1.0000063"
       x="-3.1523007e-06"
       id="filter915"
       style="color-interpolation-filters:sRGB">
      <feGaussianBlur
         id="feGaussianBlur917"
         stdDeviation="0.00010197656" />
    </filter>
    <linearGradient
       gradientUnits="userSpaceOnUse"
       y2="23.000982"
       x2="145.2878"
       y1="24.331327"
       x1="144.13251"
       id="linearGradient1031"
       xlink:href="#linearGradient1051" />
    <linearGradient
       gradientTransform="matrix(-1,0,0,1,178.40893,0.13154391)"
       y2="23.000982"
       x2="145.2878"
       y1="24.331327"
       x1="144.13251"
       gradientUnits="userSpaceOnUse"
       id="linearGradient1067"
       xlink:href="#linearGradient1051" />
    <filter
       height="1.0003457"
       y="-0.00017283237"
       width="1.0001843"
       x="-9.216877e-05"
       id="filter2300"
       style="color-interpolation-filters:sRGB">
      <feGaussianBlur
         id="feGaussianBlur2302"
         stdDeviation="0.010160967" />
    </filter>
  </defs>
  <metadata
     id="metadata5">
    <rdf:RDF>
      <cc:Work
         rdf:about="">
        <dc:format>image/svg+xml</dc:format>
        <dc:type
           rdf:resource="http://purl.org/dc/dcmitype/StillImage" />
        <dc:title></dc:title>
      </cc:Work>
    </rdf:RDF>
  </metadata>
  <g
     style="display:none"
     id="layer12">
    <rect
       y="0"
       x="0"
       height="158.75"
       width="264.58334"
       id="rect1785"
       style="opacity:0.995;fill:#000000;fill-opacity:1;stroke:#ffffff;stroke-width:0.264583;stroke-linecap:round;stroke-linejoin:round;stroke-miterlimit:4;stroke-dasharray:none;stroke-dashoffset:0;stroke-opacity:1" />
  </g>
  <g
     style="display:inline;"
     id="layer1">
    <path
       transform="matrix(0.26458334,0,0,0.26458334,0,-4.2715273)"
       d="m 0,142.21289 c 2.6001311,-4.92435 5.5075851,-9.65368 9.0390625,-13.92383 6.4018505,-7.7409 14.4735245,-14.27687 23.2343755,-19.1914 9.00859,-5.0535 19.107741,-8.39451 29.294921,-10.101566 10.626581,-1.780698 21.986029,-3.035942 32.324219,0 9.958622,2.924466 26.193362,16.835936 26.193362,16.835936 l 21.82617,-13.7793 c 0,0 -17.79524,-12.359205 -27.81641,-16.189449 -10.91841,-4.173183 -22.72264,-5.834694 -34.3457,-7.072265 -0.39233,-0.04177 -0.788189,-0.06345 -1.183594,-0.06641 v 3e-6 c -0.395405,-0.003 -0.790353,0.0128 -1.183594,0.04492 C 65.577942,79.733733 53.50492,80.802662 42.375,84.853516 31.03286,88.981607 20.313357,95.284625 11.060547,103.03516 7.0746931,106.37387 3.4059916,110.10224 0,114.07031 m 0,345.69922 c 3.3463943,6.01288 6.5410554,12.12543 10.050781,18.0332 8.02232,13.50363 14.967058,27.73039 24.242188,40.40625 9.01568,12.32128 18.466487,24.70253 30.304687,34.34375 10.52475,8.57155 22.615329,15.52011 35.355469,20.20313 15.434735,5.6735 32.113905,7.57549 48.488285,9.0918 14.41683,1.33503 29.16783,2.43242 43.43554,-0.0293 15.84421,-2.73371 31.60457,-7.97061 45.45703,-16.13281 8.95449,-5.2762 23.36133,-20.65039 23.36133,-20.65039 l -11.23828,-27.83789 -38.38672,-7.07032 -20.42578,28.27344 c 0,0 -9.3958,12.36908 -15.93945,16.17383 -9.03792,5.25503 -19.89685,7.09407 -30.30469,8.08203 -9.41013,0.89323 -19.09078,0.17209 -28.28516,-2.02148 C 105.10553,558.0081 94.243671,553.74449 84.800781,547.50391 71.093291,538.44498 59.570313,526.09822 49.445312,513.1582 43.680112,505.79012 40.108368,496.94219 35.304688,488.91406 26.379257,473.99749 17.604337,458.97494 8.0292969,444.4668 5.2656543,440.27932 2.6308402,435.96613 0,431.64062"
       style="opacity:0.995;fill:#e9cd63;fill-opacity:1;stroke:none;stroke-width:2;stroke-linecap:butt;stroke-linejoin:miter;stroke-miterlimit:4;stroke-dasharray:none;stroke-opacity:1;filter:url(#filter915)"
       id="path1008" />
    <path
       transform="matrix(0.26458334,0,0,0.26458334,0,-4.2715273)"
       d="m 1000,463.94141 c 0,0 -20.9925,-10.62733 -28.23397,-19.47459 -6.49658,-7.93719 -8.68442,-18.61886 -12.12032,-28.28319 -2.46367,-6.92971 -3.16882,-14.45309 -6.06173,-21.21488 -4.45202,-10.40602 -10.07425,-20.47653 -17.17187,-29.29297 -7.47162,-9.28102 -16.46254,-17.47201 -26.26563,-24.24414 -9.29175,-6.41889 -19.75324,-11.12157 -30.30273,-15.15234 -10.75923,-4.11091 -22.79798,-4.44292 -33.33594,-9.0918 -10.56061,-4.65887 -19.31959,-12.6508 -29.25195,-18.53125 -10.52405,-6.23077 -21.44607,-11.764 -32.12109,-17.73242 -10.94982,-6.12207 -22.61425,-11.15076 -32.75,-18.54297 -9.92781,-7.24056 -20.57241,-14.58099 -27.09571,-24.99414 -8.03026,-12.8187 -8.30654,-29.10119 -13.13086,-43.4375 -4.00965,-11.91537 -8.37035,-23.72051 -13.13281,-35.35547 -4.05374,-9.90351 -7.42998,-20.23885 -13.13086,-29.29492 -6.10967,-9.70544 -13.43301,-18.89947 -22.22461,-26.26367 -9.25281,-7.750531 -19.97231,-14.053553 -31.31445,-18.181644 -11.12992,-4.050854 -23.20294,-5.119783 -35.00781,-6.083985 -0.78648,-0.06424 -1.58253,-0.06206 -2.36719,0.02148 -11.62306,1.237571 -23.42729,2.899082 -34.3457,7.072265 -10.02117,3.830244 -27.81641,16.189444 -27.81641,16.189444 l 21.82617,13.7793 c 0,0 16.23474,-13.91146 26.19336,-16.835931 10.33819,-3.035942 21.69764,-1.780698 32.32422,0 10.18718,1.707061 20.28633,5.048061 29.29492,10.101561 8.76085,4.91453 16.83253,11.4505 23.23438,19.1914 7.58686,9.17378 12.3619,20.42488 17.17187,31.31446 5.03379,11.39629 8.654,23.38911 12.1211,35.35546 4.04583,13.96379 4.05878,29.20575 10.10234,42.42814 4.4167,9.66308 11.28545,18.1817 18.61523,25.87305 7.70823,8.08848 16.89728,14.72796 26.23555,20.86288 8.2235,5.40255 17.42759,9.14326 26.03516,13.91015 9.44968,5.23327 19.45106,9.6661 28.10937,16.125 7.82689,5.83868 16.90931,11.43788 21.21289,20.20313 4.32663,8.81219 1.01135,19.68752 3.0293,29.29492 2.03559,9.69139 4.59758,19.45888 9.0918,28.2832 4.92096,9.6622 11.53253,18.58997 19.19336,26.26367 8.85041,8.86528 19.17749,16.47061 30.30468,22.22461 8.51194,4.40163 18.27507,5.79392 27.27307,9.08985 8.51385,3.1186 25.25542,10.10272 25.25542,10.10272 0,0 -26.63241,-4.76598 -39.39687,-9.0914 -11.5599,-3.91724 -23.07654,-8.5381 -33.33436,-15.15272 -9.02437,-5.81925 -16.73477,-13.53667 -24.24336,-21.21286 -7.51614,-7.6839 -13.10774,-17.11516 -20.69336,-24.73047 -7.85003,-7.88076 -15.00216,-17.86163 -25.50862,-21.51448 -16.11166,-5.60164 -34.78298,-3.20319 -51.14767,1.60938 -16.43755,4.83401 -31.50625,14.80481 -44.07149,26.45279 -14.52517,13.46484 -23.43586,31.95572 -34.34565,48.48626 -9.57504,14.50814 -18.34996,29.53069 -27.27539,44.44726 -4.80368,8.02813 -8.37542,16.87606 -14.14062,24.24414 -10.125,12.94002 -21.64798,25.28678 -35.35547,34.34571 -9.44289,6.24058 -20.30476,10.5042 -31.31446,13.13087 -9.19438,2.19357 -18.87502,2.91471 -28.28515,2.02148 -10.40784,-0.98796 -21.26677,-2.82701 -30.30469,-8.08204 -6.54365,-3.80475 -15.93945,-16.17383 -15.93945,-16.17383 l -20.42578,-28.27343 -38.38672,7.07032 -11.23828,27.83789 c 0,0 14.40683,15.37419 23.36132,20.65039 13.85246,8.1622 29.61283,13.39909 45.45704,16.1328 14.26771,2.46172 29.01871,1.36433 43.43554,0.0293 16.37438,-1.51631 33.05355,-3.41831 48.48828,-9.09181 12.74014,-4.68302 24.83072,-11.63158 35.35547,-20.20313 11.8382,-9.64122 21.28901,-22.02247 30.30469,-34.34375 9.27513,-12.67586 16.21987,-26.90262 24.24219,-40.40625 6.78389,-11.41903 12.37702,-23.6133 20.20312,-34.34492 8.97189,-12.30279 18.94369,-24.06805 30.41016,-34.08672 8.19966,-7.16434 16.87609,-14.45918 27.07257,-18.27939 13.02359,-4.87941 28.06371,-9.04156 41.40741,-5.12134 15.60139,4.5835 25.19849,20.567 37.48134,31.22266 10.62487,9.21733 19.63226,20.45067 31.31448,28.28475 14.88512,9.98194 31.9651,16.29027 48.48787,23.23317 10.90007,4.58024 22.4732,7.44975 33.33437,12.12147 10.37512,4.46264 20.15288,10.20461 30.30544,15.15273 C 976.40698,501.69257 1000,512.75 1000,512.75"
       style="opacity:0.995;fill:#e9cd63;fill-opacity:1;stroke:none;stroke-width:2;stroke-linecap:butt;stroke-linejoin:miter;stroke-miterlimit:4;stroke-dasharray:none;stroke-opacity:1;filter:url(#filter915)"
       id="path1001" />
    <path
       d="m 82.046206,8.9576397 c -0.94285,-0.0034 -1.76586,0.105325 -2.99775,0.40411 -3.00099,-0.415152 -6.01481,-0.417672 -8.86405,0.6754113 -3.52078,-0.1896973 -7.25442,0.569937 -9.80457,1.890324 -2.72705,-0.146831 -4.701271,0.327484 -7.118433,1.890324 -2.282389,0.0091 -3.605975,0.91424 -4.969206,2.430859 -2.205493,-0.02077 -5.193726,1.162033 -6.446634,2.565218 -2.339163,0.992166 -3.293163,2.166313 -4.297929,3.916039 -1.676302,1.277128 -3.892907,2.521985 -5.774844,3.645773 -2.016236,0.381127 -4.199861,1.273882 -5.50664,3.105754 -2.753183,1.646645 -4.118915,3.405253 -5.237922,5.94124 -2.372871,1.733367 -4.084942,3.631488 -4.969725,6.076114 -1.892075,1.972024 -3.088309,4.973585 -3.357417,8.101833 -1.679331,2.18304 -3.0290165,4.873297 -3.4922945,7.832079 -1.336264,2.823753 -1.949622,5.911462 -2.014347,9.046478 -0.870563,2.93247 -1.047686,5.826898 -0.805635,8.912117 -0.470955,1.372571 -0.408482,2.110861 -0.166915,4.181657 -0.42995,2.00328 -0.390853,3.883475 0.03256,5.405356 -0.318243,2.232499 -0.130619,4.513911 0.805635,6.211507 -0.07105,2.777831 0.501574,4.496506 2.014863,6.34638 0.170233,3.200177 1.1627175,5.469227 3.0887015,7.966957 0.448615,3.3079 0.735288,4.63311 2.820501,7.02127 0.607841,2.52321 2.365367,5.35691 4.835364,6.34639 0.858313,2.33976 2.793084,4.32001 5.103564,5.26634 0.967409,1.89154 2.887509,3.68742 5.50664,4.45606 1.410367,1.9839 3.371247,3.65343 6.177918,4.18579 2.403756,2.42278 4.811578,2.74708 7.38663,2.97036 1.769211,1.57359 3.656592,2.67664 6.447153,2.43086 1.716103,1.37458 4.163695,1.59354 7.789702,0.80977 3.4917,1.64673 5.77982,2.27962 10.74456,0.94568 4.19842,0.96068 7.82258,2.86901 12.62456,-1.08055 4.56686,-3.7562 7.00355,-17.34075 6.56911,-28.23859 -0.78838,-19.775867 1.0919,-18.481568 1.09192,-18.481557 1e-5,-1.1e-5 1.88029,-1.29431 1.09192,18.481557 -0.43444,10.89784 2.00224,24.48239 6.56911,28.23859 4.801974,3.94956 8.426144,2.04123 12.624554,1.08055 4.96474,1.33394 7.25287,0.70105 10.74457,-0.94568 3.62601,0.78377 6.0736,0.56481 7.7897,-0.80977 2.79056,0.24578 4.67794,-0.85727 6.44715,-2.43086 2.57505,-0.22328 4.98288,-0.54758 7.38663,-2.97036 2.80667,-0.53236 4.76755,-2.20189 6.17792,-4.18579 2.61913,-0.76864 4.53923,-2.56452 5.50664,-4.45606 2.31048,-0.94633 4.24525,-2.92658 5.10356,-5.26634 2.47,-0.98948 4.22753,-3.82318 4.83537,-6.34639 2.08521,-2.38816 2.37189,-3.71337 2.8205,-7.02127 1.92598,-2.49773 2.91847,-4.76678 3.0887,-7.966957 1.51329,-1.849874 2.08591,-3.568549 2.01486,-6.34638 0.93626,-1.697596 1.12388,-3.979008 0.80564,-6.211507 0.42341,-1.521881 0.46251,-3.402076 0.0326,-5.405356 0.24156,-2.070796 0.30404,-2.809086 -0.16692,-4.181657 0.24205,-3.085219 0.0649,-5.979647 -0.80563,-8.912117 -0.0647,-3.135016 -0.67809,-6.222725 -2.01435,-9.046478 -0.46328,-2.958782 -1.81296,-5.649039 -3.4923,-7.832079 -0.2691,-3.128248 -1.46534,-6.129809 -3.35741,-8.101833 -0.88479,-2.444626 -2.59686,-4.342747 -4.96973,-6.076114 -1.119,-2.535987 -2.48474,-4.294595 -5.23792,-5.94124 -1.30678,-1.831872 -3.4904,-2.724627 -5.50664,-3.105754 -1.88194,-1.123788 -4.09854,-2.368645 -5.77484,-3.645773 -1.00477,-1.749726 -1.95877,-2.923873 -4.29793,-3.916039 -1.25291,-1.403185 -4.24114,-2.585988 -6.44664,-2.565218 -1.36323,-1.516619 -2.68681,-2.421801 -4.9692,-2.430859 -2.41716,-1.56284 -4.39139,-2.037155 -7.11843,-1.890324 -2.55016,-1.320387 -6.2838,-2.0800213 -9.80457,-1.890324 -2.84924,-1.0930833 -5.86306,-1.0905633 -8.864064,-0.6754113 -1.23189,-0.298785 -2.0549,-0.407529 -2.99775,-0.40411 -0.94285,0.0034 -2.00555,0.119003 -3.7176,0.269234 -3.4241,0.300464 -3.49746,2.2954673 -3.49746,2.2954673 0,0 -0.0734,-1.9950033 -3.49746,-2.2954673 -1.71205,-0.150231 -2.77475,-0.265816 -3.71761,-0.269234 z m 7.21507,69.3585593 c 0.99145,8.2e-5 1.79516,0.803789 1.79524,1.795238 2e-4,0.991653 -0.80359,1.795674 -1.79524,1.795756 -0.99166,-8.2e-5 -1.79545,-0.804103 -1.79524,-1.795756 8e-5,-0.991449 0.80379,-1.795156 1.79524,-1.795238 z"
       style="display:inline;opacity:0.995;mix-blend-mode:normal;fill:#ede8dd;fill-opacity:1;stroke:#cabb9b;stroke-width:0.529167;stroke-linecap:butt;stroke-linejoin:miter;stroke-miterlimit:4;stroke-dasharray:none;stroke-opacity:1"
       id="path940" />
    <path
       d="m 128.08114,138.18025 c 0,0 -1.41013,-4.69224 -2.59809,-6.81249 -0.96247,-1.71781 -2.30793,-3.19847 -3.60813,-4.67722 -1.4143,-1.60852 -3.39822,-2.73368 -4.54359,-4.54358 -1.06234,-1.67872 -2.00452,-5.61266 -2.00452,-5.61266 m 4.96462,22.45572 c 0,0 -0.71768,-4.27585 -1.49012,-6.28591 -0.76515,-1.99109 -2.14625,-3.69175 -3.0736,-5.61266 -0.79849,-1.65398 -1.55736,-3.33574 -2.13815,-5.07812 -0.63888,-1.91663 -1.46999,-5.87994 -1.46999,-5.87994 m -2.5727,23.80231 c 0,0 -0.68332,-3.91942 -0.63453,-5.89525 0.0635,-2.56973 1.0586,-5.05071 1.20271,-7.61718 0.11249,-2.00334 -0.0306,-4.02107 -0.26727,-6.01356 -0.1927,-1.62225 -0.93544,-4.81085 -0.93544,-4.81085"
       style="opacity:0.995;fill:none;stroke:#ccc4b3;stroke-width:0.264583px;stroke-linecap:butt;stroke-linejoin:miter;stroke-opacity:1;filter:url(#filter915)"
       id="path901" />
    <path
       id="path992"
       style="opacity:0.995;fill:none;stroke:#ccc4b3;stroke-width:0.264583px;stroke-linecap:butt;stroke-linejoin:miter;stroke-opacity:1;filter:url(#filter915)"
       d="m 50.441424,138.18024 c 0,0 1.41013,-4.69224 2.59809,-6.81249 0.96247,-1.71781 2.30793,-3.19847 3.60813,-4.67722 1.4143,-1.60852 3.39822,-2.73368 4.54359,-4.54358 1.06234,-1.67872 2.00452,-5.61266 2.00452,-5.61266 m -4.96462,22.45572 c 0,0 0.71768,-4.27585 1.49012,-6.28591 0.76515,-1.99109 2.14625,-3.69175 3.0736,-5.61266 0.79849,-1.65398 1.55736,-3.33574 2.13815,-5.07812 0.63888,-1.91663 1.46999,-5.87994 1.46999,-5.87994 m 2.5727,23.80231 c 0,0 0.68332,-3.91942 0.63453,-5.89525 -0.0635,-2.56973 -1.0586,-5.05071 -1.20271,-7.61718 -0.11249,-2.00334 0.0306,-4.02107 0.26727,-6.01356 0.1927,-1.62225 0.93544,-4.81085 0.93544,-4.81085" />
    <path
       d="m 37.547636,22.729925 -5.774843,3.645773 c 0,0 6.110316,7.532455 8.162811,11.875244 1.456799,3.082383 1.417524,6.726394 2.834452,9.827308 1.249037,2.733487 3.08763,5.172443 4.913911,7.559228 1.952024,2.551118 4.767292,4.430792 6.425449,7.181993 0.983927,1.632522 2.213581,3.469296 1.987476,5.361946 -0.260647,2.181791 -3.106807,3.346807 -3.682463,5.467366 -0.703713,2.592273 1.566841,5.575596 0.503843,8.042404 -1.226341,2.845888 -5.206061,3.530759 -7.143232,5.949509 -1.888429,2.35789 -4.691036,5.092573 -4.138766,8.062555 0.864606,4.649649 7.192709,6.152519 10.583334,9.449549 2.236322,2.17459 4.236993,4.58045 6.425449,6.8032 2.406618,2.44434 3.96422,6.77761 7.370609,7.18148 2.692919,0.31928 4.672571,-2.75379 6.992856,-4.15737 2.468189,-1.49305 5.843161,-2.08827 7.37009,-4.53564 2.077167,-3.3293 1.680874,-7.83175 1.134298,-11.717627 -0.358465,-2.54851 -3.231949,-4.638683 -2.834968,-7.181477 0.276225,-1.769305 1.826019,-3.307315 3.401859,-4.157887 2.118178,-1.143302 7.181475,-0.755507 7.181475,-0.755507 0,0 5.063296,-0.387795 7.181474,0.755507 1.57584,0.850572 3.125634,2.388582 3.401859,4.157887 0.396981,2.542794 -2.476503,4.632967 -2.834968,7.181477 -0.546576,3.885877 -0.942869,8.388327 1.134298,11.717627 1.526929,2.44737 4.901901,3.04259 7.370091,4.53564 2.32028,1.40358 4.29994,4.47665 6.99286,4.15737 3.40638,-0.40387 4.96399,-4.73714 7.3706,-7.18148 2.18846,-2.22275 4.18913,-4.62861 6.42545,-6.8032 3.39063,-3.29703 9.71873,-4.7999 10.58334,-9.449549 0.55227,-2.969982 -2.25034,-5.704665 -4.13877,-8.062555 -1.93717,-2.41875 -5.91689,-3.103621 -7.14323,-5.949509 -1.063,-2.466808 1.20755,-5.450131 0.50384,-8.042404 -0.57565,-2.120559 -3.42181,-3.285575 -3.68246,-5.467366 -0.22611,-1.89265 1.00355,-3.729424 1.98748,-5.361946 1.65815,-2.751201 4.47342,-4.630875 6.42544,-7.181993 1.82629,-2.386785 3.66488,-4.825741 4.91391,-7.559228 1.41693,-3.100914 1.37766,-6.744925 2.83446,-9.827308 2.05249,-4.342789 8.16281,-11.875244 8.16281,-11.875244 l -5.77485,-3.645773 c 1e-5,0 -4.0218,5.475142 -6.9236,7.016629 -4.2445,2.254755 -9.63539,1.063937 -14.17382,2.645833 -4.70989,1.641663 -9.7908,3.379044 -13.22916,6.992337 -2.87536,3.021653 -4.12056,7.336036 -5.29167,11.339359 -1.07064,3.659857 -0.63065,7.62938 -1.512051,11.33936 -0.755208,3.178815 -0.808596,7.047868 -3.212724,9.260417 -1.866281,1.717561 -7.370609,1.889807 -7.370609,1.889807 0,0 -5.504329,-0.172246 -7.37061,-1.889807 C 79.486538,69.111311 79.43315,65.242258 78.677942,62.063443 77.796543,58.353463 78.236527,54.38394 77.16589,50.724083 75.994778,46.72076 74.749586,42.406377 71.874224,39.384724 68.435865,35.771431 63.354952,34.03405 58.645057,32.392387 54.10663,30.810491 48.715744,32.001309 44.471242,29.746554 41.569446,28.205067 37.547628,22.729925 37.547636,22.729925 Z m 51.71364,55.586274 c 0.991449,8.2e-5 1.795158,0.803789 1.79524,1.795238 2.04e-4,0.991653 -0.803587,1.795674 -1.79524,1.795756 -0.991654,-8.2e-5 -1.795445,-0.804103 -1.795241,-1.795756 8.2e-5,-0.991449 0.803791,-1.795156 1.795241,-1.795238 z"
       style="opacity:0.995;fill:#ccc4b3;fill-opacity:1;stroke:#ccc4b3;stroke-width:0.529167;stroke-linecap:butt;stroke-linejoin:round;stroke-miterlimit:4;stroke-dasharray:none;stroke-opacity:1"
       id="path884" />
    <path
       id="path1023"
       d="m 140.86134,22.59838 c 0.76646,-0.881633 1.98029,-1.319665 4.28642,0.332586 2.21063,1.583825 2.54323,2.58845 1.82224,3.547998 -0.72098,0.959549 -1.49108,1.422664 -4.32839,-0.502208 -2.58453,-1.753383 -2.54674,-2.496743 -1.78027,-3.378376 z"
       style="fill:url(#linearGradient1031);fill-opacity:1;stroke:none;stroke-width:0.264583px;stroke-linecap:butt;stroke-linejoin:miter;stroke-opacity:1" />
    <path
       id="path1053"
       style="opacity:0.995;fill:none;fill-opacity:1;stroke:#e0b81f;stroke-width:2;stroke-linecap:round;stroke-linejoin:miter;stroke-miterlimit:4;stroke-dasharray:none;stroke-opacity:1;"
       d="m 1000,463.94141 c 0,0 -20.9925,-10.62733 -28.23397,-19.47459 -6.49658,-7.93719 -8.68442,-18.61886 -12.12032,-28.28319 -2.46367,-6.92971 -3.16882,-14.45309 -6.06173,-21.21488 -4.45202,-10.40602 -10.07425,-20.47653 -17.17187,-29.29297 -7.47162,-9.28102 -16.46254,-17.47201 -26.26563,-24.24414 -9.29175,-6.41889 -19.75324,-11.12157 -30.30273,-15.15234 -10.75923,-4.11091 -22.79798,-4.44292 -33.33594,-9.0918 -10.56061,-4.65887 -19.31959,-12.6508 -29.25195,-18.53125 -10.52405,-6.23077 -21.44607,-11.764 -32.12109,-17.73242 -10.94982,-6.12207 -22.61425,-11.15076 -32.75,-18.54297 -9.92781,-7.24056 -20.57241,-14.58099 -27.09571,-24.99414 -8.03026,-12.8187 -8.30654,-29.10119 -13.13086,-43.4375 -4.00965,-11.91537 -8.37035,-23.72051 -13.13281,-35.35547 -4.05374,-9.90351 -7.42998,-20.23885 -13.13086,-29.29492 -6.10967,-9.70544 -13.43301,-18.89947 -22.22461,-26.26367 -9.25281,-7.750531 -19.97231,-14.053553 -31.31445,-18.181644 -11.12992,-4.050854 -23.20294,-5.119783 -35.00781,-6.083985 -0.78648,-0.06424 -1.58253,-0.06206 -2.36719,0.02148 -11.62306,1.237571 -23.42729,2.899082 -34.3457,7.072265 -10.02117,3.830244 -27.81641,16.189444 -27.81641,16.189444 m 21.82617,13.7793 c 0,0 16.23474,-13.91146 26.19336,-16.835931 10.33819,-3.035942 21.69764,-1.780698 32.32422,0 10.18718,1.707061 20.28633,5.048061 29.29492,10.101561 8.76085,4.91453 16.83253,11.4505 23.23438,19.1914 7.58686,9.17378 12.3619,20.42488 17.17187,31.31446 5.03379,11.39629 8.654,23.38911 12.1211,35.35546 4.04583,13.96379 4.05878,29.20575 10.10234,42.42814 4.4167,9.66308 11.28545,18.1817 18.61523,25.87305 7.70823,8.08848 16.89728,14.72796 26.23555,20.86288 8.2235,5.40255 17.42759,9.14326 26.03516,13.91015 9.44968,5.23327 19.45106,9.6661 28.10937,16.125 7.82689,5.83868 16.90931,11.43788 21.21289,20.20313 4.32663,8.81219 1.01135,19.68752 3.0293,29.29492 2.03559,9.69139 4.59758,19.45888 9.0918,28.2832 4.92096,9.6622 11.53253,18.58997 19.19336,26.26367 8.85041,8.86528 19.17749,16.47061 30.30468,22.22461 8.51194,4.40163 18.27507,5.79392 27.27307,9.08985 8.51385,3.1186 25.25542,10.10272 25.25542,10.10272 0,0 -26.63241,-4.76598 -39.39687,-9.0914 -11.5599,-3.91724 -23.07654,-8.5381 -33.33436,-15.15272 -9.02437,-5.81925 -16.73477,-13.53667 -24.24336,-21.21286 -7.51614,-7.6839 -13.10774,-17.11516 -20.69336,-24.73047 -7.85003,-7.88076 -15.00216,-17.86163 -25.50862,-21.51448 -16.11166,-5.60164 -34.78298,-3.20319 -51.14767,1.60938 -16.43755,4.83401 -31.50625,14.80481 -44.07149,26.45279 -14.52517,13.46484 -23.43586,31.95572 -34.34565,48.48626 -9.57504,14.50814 -18.34996,29.53069 -27.27539,44.44726 -4.80368,8.02813 -8.37542,16.87606 -14.14062,24.24414 -10.125,12.94002 -21.64798,25.28678 -35.35547,34.34571 -9.44289,6.24058 -20.30476,10.5042 -31.31446,13.13087 -9.19438,2.19357 -18.87502,2.91471 -28.28515,2.02148 -10.40784,-0.98796 -21.26677,-2.82701 -30.30469,-8.08204 -6.54365,-3.80475 -15.93945,-16.17383 -15.93945,-16.17383 m -70.05078,6.63478 c 0,0 14.40683,15.37419 23.36132,20.65039 13.85246,8.1622 29.61283,13.39909 45.45704,16.1328 14.26771,2.46172 29.01871,1.36433 43.43554,0.0293 16.37438,-1.51631 33.05355,-3.41831 48.48828,-9.09181 12.74014,-4.68302 24.83072,-11.63158 35.35547,-20.20313 11.8382,-9.64122 21.28901,-22.02247 30.30469,-34.34375 9.27513,-12.67586 16.21987,-26.90262 24.24219,-40.40625 6.78389,-11.41903 12.37702,-23.6133 20.20312,-34.34492 8.97189,-12.30279 18.94369,-24.06805 30.41016,-34.08672 8.19966,-7.16434 16.87609,-14.45918 27.07257,-18.27939 13.02359,-4.87941 28.06371,-9.04156 41.40741,-5.12134 15.60139,4.5835 25.19849,20.567 37.48134,31.22266 10.62487,9.21733 19.63226,20.45067 31.31448,28.28475 14.88512,9.98194 31.9651,16.29027 48.48787,23.23317 10.90007,4.58024 22.4732,7.44975 33.33437,12.12147 10.37512,4.46264 20.15288,10.20461 30.30544,15.15273 C 976.40698,501.69257 1000,512.75 1000,512.75"
       transform="matrix(0.26458334,0,0,0.26458334,0,-4.2715273)" />
    <path
       style="fill:url(#linearGradient1067);fill-opacity:1;stroke:none;stroke-width:0.264583px;stroke-linecap:butt;stroke-linejoin:miter;stroke-opacity:1"
       d="m 37.54758,22.729925 c -0.76646,-0.881633 -1.98029,-1.319665 -4.28642,0.332586 -2.21063,1.583825 -2.54323,2.58845 -1.82224,3.547998 0.72098,0.959549 1.49108,1.422664 4.32839,-0.502208 2.58453,-1.753383 2.54674,-2.496743 1.78027,-3.378376 z"
       id="path1065" />
    <path
       transform="scale(0.26458334)"
       d="m 0,126.06836 c 2.6001011,-4.92427 5.5076392,-9.65375 9.0390625,-13.92383 6.4018505,-7.7409 14.4735245,-14.276875 23.2343755,-19.191405 9.00859,-5.0535 19.107741,-8.394501 29.294921,-10.101563 10.626581,-1.780698 21.986029,-3.035942 32.324219,0 C 103.8512,85.776034 120.08594,99.6875 120.08594,99.6875 m 21.82617,-13.779297 c 0,0 -17.79524,-12.359209 -27.81641,-16.189453 -10.91841,-4.173183 -22.72264,-5.834695 -34.3457,-7.072266 -0.39233,-0.04177 -0.788189,-0.06345 -1.183594,-0.06641 -0.395405,-0.003 -0.790353,0.0128 -1.183594,0.04492 C 65.577942,63.589202 53.50492,64.65813 42.375,68.708984 31.03286,72.837075 20.313357,79.140094 11.060547,86.890625 7.074833,90.22922 3.4058915,93.957862 0,97.925781 M 0,443.625 c 3.3463943,6.01288 6.5410554,12.12543 10.050781,18.0332 8.02232,13.50363 14.967058,27.73039 24.242188,40.40625 9.01568,12.32128 18.466487,24.70253 30.304687,34.34375 10.52475,8.57155 22.615329,15.52011 35.355469,20.20313 15.434735,5.6735 32.113905,7.57548 48.488285,9.09179 14.41683,1.33504 29.16783,2.43243 43.43554,-0.0293 15.84421,-2.73371 31.60457,-7.97061 45.45703,-16.13281 8.95449,-5.2762 23.36133,-20.6504 23.36133,-20.6504 m -70.05078,-6.63476 c 0,0 -9.3958,12.36908 -15.93945,16.17383 -9.03792,5.25503 -19.89685,7.09407 -30.30469,8.08203 -9.41013,0.89323 -19.09078,0.17208 -28.28516,-2.02149 -11.0097,-2.62667 -21.871559,-6.89027 -31.314449,-13.13085 -13.70749,-9.05894 -25.230468,-21.40569 -35.355469,-34.34571 -5.7652,-7.36808 -9.336944,-16.21601 -14.140624,-24.24414 C 26.379257,457.85296 17.604337,442.83041 8.0292969,428.32227 5.2656543,424.13479 2.6308402,419.8216 0,415.49609"
       style="opacity:0.995;fill:none;fill-opacity:1;stroke:#e0b81f;stroke-width:2;stroke-linecap:round;stroke-linejoin:miter;stroke-miterlimit:4;stroke-dasharray:none;stroke-opacity:1;filter:url(#filter915)"
       id="path1055" />
    <path
       d="m 70.184406,10.037161 6.26725,23.389698 M 108.33819,10.037161 102.07094,33.426859 M 89.261317,11.522341 v 24.91728"
       style="fill:none;stroke:#cabb9b;stroke-width:0.529167;stroke-linecap:butt;stroke-linejoin:miter;stroke-miterlimit:4;stroke-dasharray:none;stroke-opacity:1"
       id="path1081" />
  </g>
  <g
     style="display:inline"
     id="layer6">
    <path
       id="path1320"
       d="M 193.81042,43.97144 C 212.29523,31.368161 215.6561,17.084445 215.6561,17.084445"
       style="fill:none;stroke:#ffffff;stroke-width:0.396875;stroke-linecap:butt;stroke-linejoin:miter;stroke-miterlimit:4;stroke-dasharray:none;stroke-opacity:1;marker-start:url(#TriangleInL)" />
    <text
       id="text2223"
       y="13.443498"
       x="176.44591"
       style="font-style:normal;font-weight:normal;font-size:7.05556px;line-height:1.25;font-family:sans-serif;fill:#000000;fill-opacity:1;stroke:none;stroke-width:0.264583"
       xml:space="preserve"><tspan
         style="font-size:7.05556px;fill:#ffffff;stroke-width:0.264583"
         y="13.443498"
         x="176.44591"
         id="tspan2221">Dorsal (Posterior) Root</tspan></text>
  </g>
  <g
     style="display:inline"
     id="layer7">
    <text
       id="text1789"
       y="144.23753"
       x="189.04919"
       style="font-style:normal;font-weight:normal;font-size:10.5833px;line-height:1.25;font-family:sans-serif;fill:#000000;fill-opacity:1;stroke:none;stroke-width:0.264583"
       xml:space="preserve"><tspan
         style="stroke-width:0.264583"
         y="144.23753"
         x="189.04919"
         id="tspan1787" /></text>
    <text
       id="text1793"
       y="135.55527"
       x="194.0905"
       style="font-style:normal;font-weight:normal;font-size:10.5833px;line-height:1.25;font-family:sans-serif;fill:#000000;fill-opacity:1;stroke:none;stroke-width:0.264583"
       xml:space="preserve"><tspan
         style="stroke-width:0.264583"
         y="135.55527"
         x="194.0905"
         id="tspan1791" /></text>
    <text
       id="text1797"
       y="146.19804"
       x="183.7278"
       style="font-style:normal;font-weight:normal;font-size:10.5833px;line-height:1.25;font-family:sans-serif;fill:#000000;fill-opacity:1;stroke:none;stroke-width:0.264583"
       xml:space="preserve"><tspan
         style="stroke-width:0.264583"
         y="146.19804"
         x="183.7278"
         id="tspan1795" /></text>
    <path
       id="path1803"
       d="m 185.12816,120.7114 c 11.12232,5.86471 15.68408,21.28554 15.68408,21.28554"
       style="fill:none;stroke:#ffffff;stroke-width:0.396875;stroke-linecap:butt;stroke-linejoin:miter;stroke-miterlimit:4;stroke-dasharray:none;stroke-opacity:1;marker-start:url(#marker1810)" />
    <text
       xml:space="preserve"
       style="font-style:normal;font-weight:normal;font-size:7.05556px;line-height:1.25;font-family:sans-serif;display:inline;fill:#000000;fill-opacity:1;stroke:none;stroke-width:0.264583"
       x="169.16402"
       y="151.51942"
       id="text2227"><tspan
         id="tspan2225"
         x="169.16402"
         y="151.51942"
         style="font-size:7.05556px;fill:#ffffff;stroke-width:0.264583">Ventral (Anterior) Root</tspan></text>
  </g>
  <g
     style="display:inline"
     id="layer8">
    <path
       id="path1908"
       d="m 240.86267,79.260621 c 0,0 2.80073,-12.60328 0.84022,-19.885174"
       style="display:inline;fill:none;stroke:#ffffff;stroke-width:0.396875;stroke-linecap:butt;stroke-linejoin:miter;stroke-miterlimit:4;stroke-dasharray:none;stroke-opacity:1;marker-start:url(#marker2092)" />
    <text
       xml:space="preserve"
       style="font-style:normal;font-weight:normal;font-size:7.05556px;line-height:1.25;font-family:sans-serif;display:inline;fill:#000000;fill-opacity:1;stroke:none;stroke-width:0.264583"
       x="240.35367"
       y="46.772171"
       id="text2233"><tspan
         id="tspan2231"
         x="240.35367"
         y="46.772171"
         style="font-size:7.05556px;text-align:center;text-anchor:middle;fill:#ffffff;stroke-width:0.264583">Dorsal Root</tspan><tspan
         id="tspan2235"
         x="240.35367"
         y="55.591621"
         style="font-size:7.05556px;text-align:center;text-anchor:middle;fill:#ffffff;stroke-width:0.264583">Ganglion</tspan></text>
  </g>
  <g
     style="display:inline"
     id="layer9">
    <text
       xml:space="preserve"
       style="font-style:normal;font-weight:normal;font-size:7.05556px;line-height:1.25;font-family:sans-serif;fill:#998966;fill-opacity:1;stroke:none;stroke-width:0.264583"
       x="111.44057"
       y="76.4599"
       id="text2250"><tspan
         x="111.44057"
         y="76.4599"
         style="font-size:7.05556px;text-align:center;text-anchor:middle;fill:#998966;fill-opacity:1;stroke-width:0.264583"
         id="tspan2248">Gray</tspan><tspan
         id="tspan2254"
         x="111.44057"
         y="85.27935"
         style="font-size:7.05556px;text-align:center;text-anchor:middle;fill:#998966;fill-opacity:1;stroke-width:0.264583">Matter</tspan></text>
  </g>
  <g
     style="display:inline"
     id="layer10">
    <text
       id="text2242"
       y="70.018219"
       x="147.2899"
       style="font-style:normal;font-weight:normal;font-size:7.05556px;line-height:1.25;font-family:sans-serif;fill:#998966;fill-opacity:1;stroke:none;stroke-width:0.264583"
       xml:space="preserve"><tspan
         style="font-size:7.05556px;text-align:center;text-anchor:middle;fill:#998966;fill-opacity:1;stroke-width:0.264583"
         y="70.018219"
         x="147.2899"
         id="tspan2240">White</tspan><tspan
         id="tspan2244"
         style="font-size:7.05556px;text-align:center;text-anchor:middle;fill:#998966;fill-opacity:1;stroke-width:0.264583"
         y="78.837669"
         x="147.2899">Matter</tspan></text>
  </g>
  <g
     style="display:none"
     id="layer11">
    <path
       id="path2277"
       d="m 96.910284,107.32351 c 0,0 4.378806,-1.53285 6.665376,-1.76743 2.40052,-0.24627 4.87304,-0.12821 7.22852,0.39608 2.15382,0.4794 4.28896,1.2734 6.13928,2.47552 1.2758,0.82887 3.27981,3.17411 3.27981,3.17411"
       style="fill:none;stroke:#998966;stroke-width:0.198437;stroke-linecap:butt;stroke-linejoin:miter;stroke-miterlimit:4;stroke-dasharray:0.79375, 0.79375;stroke-dashoffset:0;stroke-opacity:1" />
    <path
       id="path2275"
       d="m 130.95611,86.070352 c 0,0 -4.72229,-0.1055 -7.0812,-0.02135 -3.10926,0.110917 -6.23367,0.215004 -9.30795,0.693145 -2.95069,0.458919 -5.85273,1.224252 -8.71382,2.079435 -2.07978,0.621648 -6.124747,2.212422 -6.124747,2.212422"
       style="fill:none;stroke:#998966;stroke-width:0.198437;stroke-linecap:butt;stroke-linejoin:miter;stroke-miterlimit:4;stroke-dasharray:0.79375, 0.79375;stroke-dashoffset:0;stroke-opacity:1" />
    <path
       id="path2273"
       d="m 125.50967,81.4452 c 0,0 -2.13032,-1.126641 -2.96802,-1.967609 -0.87511,-0.878534 -1.68288,-1.922141 -2.04339,-3.108596 -0.41218,-1.35645 -0.36622,-2.87421 -0.0361,-4.252915 0.33381,-1.393875 1.98018,-3.816767 1.98018,-3.816767"
       style="fill:none;stroke:#998966;stroke-width:0.198437;stroke-linecap:butt;stroke-linejoin:miter;stroke-miterlimit:4;stroke-dasharray:0.79375, 0.79375;stroke-dashoffset:0;stroke-opacity:1" />
    <path
       id="path2271"
       d="m 98.086417,76.929859 c 0,0 3.260413,0.497162 4.895123,0.405315 2.55289,-0.143435 5.09764,-0.683458 7.52557,-1.485309 2.04684,-0.675993 4.00913,-1.638439 5.84223,-2.772581 2.19488,-1.357974 6.09305,-4.777971 6.09305,-4.777971"
       style="fill:none;stroke:#998966;stroke-width:0.198437;stroke-linecap:butt;stroke-linejoin:miter;stroke-miterlimit:4;stroke-dasharray:0.79375, 0.79375;stroke-dashoffset:0;stroke-opacity:1" />
    <path
       id="path2269"
       d="m 98.090038,73.156244 c 0,0 4.276232,-3.735869 6.772902,-5.029996 2.25184,-1.167225 4.72108,-1.994349 7.2285,-2.376497 2.15384,-0.328259 4.36957,-0.137781 6.53537,0.09902 1.32051,0.14438 3.90358,0.802103 3.90358,0.802103"
       style="fill:none;stroke:#998966;stroke-width:0.198437;stroke-linecap:butt;stroke-linejoin:miter;stroke-miterlimit:4;stroke-dasharray:0.79375, 0.79375;stroke-dashoffset:0;stroke-opacity:1" />
    <path
       id="path2267"
       d="m 137.48965,41.607143 c 0,0 -1.49426,-0.92813 -1.73226,-1.701797 -0.3464,-1.126044 0.84952,-2.298029 0.69315,-3.465725 -0.13715,-1.024137 -0.60569,-2.095573 -1.38629,-2.772579 -1.02508,-0.889044 -2.50997,-1.170138 -3.86181,-1.287269 -1.99509,-0.172867 -3.9758,0.507341 -5.94124,0.891185 -1.93287,0.377483 -3.86147,0.805299 -5.7432,1.38629 -2.22582,0.687231 -4.50409,1.335127 -6.53537,2.475518 -1.64079,0.921164 -3.13472,2.125895 -4.45593,3.465725 -1.30711,1.32553 -2.50974,2.803308 -3.3667,4.455932 -0.79767,1.538269 -1.18399,3.265136 -1.58434,4.951037 -0.58676,2.470887 -0.80545,5.014987 -1.18824,7.525573 -0.34195,2.24269 -0.388,4.546188 -0.99021,6.733408 -0.27203,0.98802 -1.17263,2.841937 -1.17263,2.841937"
       style="fill:none;stroke:#998966;stroke-width:0.198437;stroke-linecap:butt;stroke-linejoin:miter;stroke-miterlimit:4;stroke-dasharray:0.79375, 0.79375;stroke-dashoffset:0;stroke-opacity:1" />
    <path
       id="path2265"
       d="m 102.58546,65.848772 c 0,0 1.37725,-2.346587 1.98041,-3.564745 0.76735,-1.549753 1.5603,-3.103434 2.07944,-4.752994 0.75787,-2.4081 0.63747,-5.048637 1.48531,-7.426553 0.82812,-2.322601 1.78124,-4.734593 3.46572,-6.535367 1.67069,-1.786035 3.95615,-2.982676 6.23831,-3.861808 2.2232,-0.856419 4.65472,-1.46579 7.03047,-1.287269 1.11374,0.08369 2.34129,0.338974 3.16866,1.089228 0.94097,0.853266 1.14703,2.273146 1.58435,3.465725 0.37774,1.030123 0.21983,2.300822 0.89117,3.168662 1.13772,1.470731 4.81828,2.81094 4.81828,2.81094"
       style="fill:none;stroke:#998966;stroke-width:0.198437;stroke-linecap:butt;stroke-linejoin:miter;stroke-miterlimit:4;stroke-dasharray:0.79375, 0.79375;stroke-dashoffset:0;stroke-opacity:1" />
    <path
       id="path2263"
       d="m 107.43747,63.373255 c 0,0 2.00987,-2.320177 3.26768,-3.168663 2.09485,-1.413128 4.43153,-2.701345 6.93146,-3.069643 1.31634,-0.193927 2.84862,-0.235216 3.96082,0.495105 1.6129,1.059104 2.94175,4.985422 2.94175,4.985422"
       style="fill:none;stroke:#998966;stroke-width:0.198437;stroke-linecap:butt;stroke-linejoin:miter;stroke-miterlimit:4;stroke-dasharray:0.79375, 0.79375;stroke-dashoffset:0;stroke-opacity:1" />
    <path
       id="path2261"
       d="m 108.0316,59.412426 c 0,0 3.32107,-4.911898 5.20005,-7.199508 1.5828,-1.927016 2.91627,-4.267537 5.09809,-5.475143 1.5292,-0.846394 3.52695,-1.640986 5.14909,-0.990208 1.428,0.572891 2.09114,2.338648 2.67355,3.762789 0.63265,1.546972 0.12992,3.416503 0.79217,4.951036 0.49796,1.153852 2.30015,2.987202 2.30015,2.987202"
       style="fill:none;stroke:#998966;stroke-width:0.198437;stroke-linecap:butt;stroke-linejoin:miter;stroke-miterlimit:4;stroke-dasharray:0.79375, 0.79375;stroke-dashoffset:0;stroke-opacity:1" />
    <path
       id="path1152"
       d="m 94.73543,72.329555 c 0,0 2.04239,1.709082 2.6472,2.858238 0.848761,1.612667 1.204493,3.510771 1.20302,5.333156 -0.0013,1.579683 -0.366187,3.197327 -1.050275,4.621203 -0.372105,0.774508 -1.605364,2.016863 -1.605364,2.016863"
       style="fill:none;stroke:#998966;stroke-width:0.198437;stroke-linecap:butt;stroke-linejoin:miter;stroke-miterlimit:4;stroke-dasharray:0.79375, 0.79375;stroke-dashoffset:0;stroke-opacity:1" />
    <text
       id="text1162"
       y="77.605011"
       x="87.968903"
       style="font-style:normal;font-weight:normal;font-size:4.93889px;line-height:1.25;font-family:sans-serif;fill:#998966;fill-opacity:1;stroke:none;stroke-width:0.264583"
       xml:space="preserve"><tspan
         style="font-style:normal;font-variant:normal;font-weight:normal;font-stretch:normal;font-size:4.93889px;font-family:'Sitka Display';-inkscape-font-specification:'Sitka Display';fill:#998966;fill-opacity:1;stroke-width:0.264583"
         y="77.605011"
         x="87.968903"
         id="tspan1160">X</tspan></text>
    <path
       id="path1164"
       style="fill:none;stroke:#998966;stroke-width:0.198437;stroke-linecap:butt;stroke-linejoin:miter;stroke-miterlimit:4;stroke-dasharray:0.79375, 0.79375;stroke-dashoffset:0;stroke-opacity:1"
       d="m 84.011161,72.557015 c 0,0 -2.042391,1.709082 -2.647201,2.858238 -0.848761,1.612667 -1.204493,3.510771 -1.20302,5.333156 0.0013,1.579683 0.366187,3.197327 1.050275,4.621203 0.372105,0.774508 1.605366,2.016863 1.605366,2.016863 M 70.71499,59.639886 c 0,0 -3.32107,-4.911898 -5.20005,-7.199508 -1.5828,-1.927016 -2.91627,-4.267537 -5.09809,-5.475143 -1.5292,-0.846394 -3.52695,-1.640986 -5.14909,-0.990208 -1.428,0.572891 -2.09114,2.338648 -2.67355,3.762789 -0.63265,1.546972 -0.12992,3.416503 -0.79217,4.951036 -0.49796,1.153852 -2.30015,2.987202 -2.30015,2.987202 m 21.80723,5.924661 c 0,0 -2.00987,-2.320177 -3.26768,-3.168663 -2.09485,-1.413128 -4.43153,-2.701345 -6.93146,-3.069643 -1.31634,-0.193927 -2.84862,-0.235216 -3.96082,0.495105 -1.6129,1.059104 -2.94175,4.985422 -2.94175,4.985422 m 21.95372,3.233296 c 0,0 -1.37725,-2.346587 -1.98041,-3.564745 -0.76735,-1.549753 -1.5603,-3.103434 -2.07944,-4.752994 -0.75787,-2.4081 -0.63747,-5.048637 -1.48531,-7.426553 -0.82812,-2.322601 -1.78124,-4.734593 -3.46572,-6.535367 -1.67069,-1.786035 -3.95615,-2.982676 -6.23831,-3.861808 -2.2232,-0.856419 -4.65472,-1.46579 -7.03047,-1.287269 -1.11374,0.08369 -2.34129,0.338974 -3.16866,1.089228 -0.94097,0.853266 -1.14703,2.273146 -1.58435,3.465725 -0.37774,1.030123 -0.21983,2.300822 -0.89117,3.168662 -1.13772,1.470731 -4.81828,2.81094 -4.81828,2.81094 m -2.162074,-7.347448 c 0,0 1.494264,-0.92813 1.732264,-1.701797 0.3464,-1.126044 -0.849524,-2.298029 -0.693154,-3.465725 0.13715,-1.024137 0.605694,-2.095573 1.386294,-2.772579 1.02508,-0.889044 2.50997,-1.170138 3.86181,-1.287269 1.99509,-0.172867 3.9758,0.507341 5.94124,0.891185 1.93287,0.377483 3.86147,0.805299 5.7432,1.38629 2.22582,0.687231 4.50409,1.335127 6.53537,2.475518 1.64079,0.921164 3.13472,2.125895 4.45593,3.465725 1.30711,1.32553 2.50974,2.803308 3.3667,4.455932 0.79767,1.538269 1.18399,3.265136 1.58434,4.951037 0.58676,2.470887 0.80545,5.014987 1.18824,7.525573 0.34195,2.24269 0.388,4.546188 0.99021,6.733408 0.27203,0.98802 1.17263,2.841937 1.17263,2.841937 m 2.134542,6.049866 c 0,0 -4.276232,-3.735869 -6.772902,-5.029996 -2.25184,-1.167225 -4.72108,-1.994349 -7.2285,-2.376497 -2.15384,-0.328259 -4.36957,-0.137781 -6.53537,0.09902 -1.32051,0.14438 -3.90358,0.802103 -3.90358,0.802103 m 24.443973,10.278985 c 0,0 -3.260413,0.497162 -4.895123,0.405315 C 73.21216,77.419199 70.66741,76.879176 68.23948,76.077325 66.19264,75.401332 64.23035,74.438886 62.39725,73.304744 60.20237,71.94677 56.3042,68.526773 56.3042,68.526773 M 53.23692,81.67266 c 0,0 2.13032,-1.126641 2.96802,-1.967609 0.87511,-0.878534 1.68288,-1.922141 2.04339,-3.108596 0.41218,-1.35645 0.36622,-2.87421 0.0361,-4.252915 -0.33381,-1.393875 -1.98018,-3.816767 -1.98018,-3.816767 m -8.51377,17.771039 c 0,0 4.72229,-0.1055 7.0812,-0.02135 3.10926,0.110917 6.23367,0.215004 9.30795,0.693145 2.95069,0.458919 5.85273,1.224252 8.71382,2.079435 2.07978,0.621648 6.124747,2.212422 6.124747,2.212422 m 2.818109,16.289506 c 0,0 -4.378806,-1.53285 -6.665376,-1.76743 -2.40052,-0.24627 -4.87304,-0.12821 -7.22852,0.39608 -2.15382,0.4794 -4.28896,1.2734 -6.13928,2.47552 -1.2758,0.82887 -3.27981,3.17411 -3.27981,3.17411" />
    <g
       transform="translate(0.0330965)"
       id="g1186">
      <text
         xml:space="preserve"
         style="font-style:normal;font-weight:normal;font-size:4.93889px;line-height:1.25;font-family:sans-serif;fill:#998966;fill-opacity:1;stroke:none;stroke-width:0.264583"
         x="137.53976"
         y="32.669796"
         id="text1106"><tspan
           id="tspan1104"
           x="137.53976"
           y="32.669796"
           style="font-style:normal;font-variant:normal;font-weight:normal;font-stretch:normal;font-size:4.93889px;font-family:'Sitka Display';-inkscape-font-specification:'Sitka Display';fill:#998966;fill-opacity:1;stroke-width:0.264583">I</tspan></text>
      <text
         id="text1114"
         y="39.051056"
         x="130.23917"
         style="font-style:normal;font-weight:normal;font-size:4.93889px;line-height:1.25;font-family:sans-serif;fill:#998966;fill-opacity:1;stroke:none;stroke-width:0.264583"
         xml:space="preserve"><tspan
           style="font-style:normal;font-variant:normal;font-weight:normal;font-stretch:normal;font-size:4.93889px;font-family:'Sitka Display';-inkscape-font-specification:'Sitka Display';fill:#998966;fill-opacity:1;stroke-width:0.264583"
           y="39.051056"
           x="130.23917"
           id="tspan1112">II</tspan></text>
      <text
         xml:space="preserve"
         style="font-style:normal;font-weight:normal;font-size:4.93889px;line-height:1.25;font-family:sans-serif;fill:#998966;fill-opacity:1;stroke:none;stroke-width:0.264583"
         x="107.03022"
         y="72.589218"
         id="text1118"><tspan
           id="tspan1116"
           x="107.03022"
           y="72.589218"
           style="font-style:normal;font-variant:normal;font-weight:normal;font-stretch:normal;font-size:4.93889px;font-family:'Sitka Display';-inkscape-font-specification:'Sitka Display';fill:#998966;fill-opacity:1;stroke-width:0.264583">VI</tspan></text>
      <text
         id="text1122"
         y="76.375656"
         x="121.15752"
         style="font-style:normal;font-weight:normal;font-size:4.93889px;line-height:1.25;font-family:sans-serif;fill:#998966;fill-opacity:1;stroke:none;stroke-width:0.264583"
         xml:space="preserve"><tspan
           style="font-style:normal;font-variant:normal;font-weight:normal;font-stretch:normal;font-size:4.93889px;font-family:'Sitka Display';-inkscape-font-specification:'Sitka Display';fill:#998966;fill-opacity:1;stroke-width:0.264583"
           y="76.375656"
           x="121.15752"
           id="tspan1120">VI</tspan></text>
      <text
         xml:space="preserve"
         style="font-style:normal;font-weight:normal;font-size:4.93889px;line-height:1.25;font-family:sans-serif;fill:#998966;fill-opacity:1;stroke:none;stroke-width:0.264583"
         x="108.6358"
         y="83.092079"
         id="text1126"><tspan
           id="tspan1124"
           x="108.6358"
           y="83.092079"
           style="font-style:normal;font-variant:normal;font-weight:normal;font-stretch:normal;font-size:4.93889px;font-family:'Sitka Display';-inkscape-font-specification:'Sitka Display';fill:#998966;fill-opacity:1;stroke-width:0.264583">VII</tspan></text>
      <text
         id="text1130"
         y="97.798111"
         x="111.90056"
         style="font-style:normal;font-weight:normal;font-size:4.93889px;line-height:1.25;font-family:sans-serif;fill:#998966;fill-opacity:1;stroke:none;stroke-width:0.264583"
         xml:space="preserve"><tspan
           style="font-style:normal;font-variant:normal;font-weight:normal;font-stretch:normal;font-size:4.93889px;font-family:'Sitka Display';-inkscape-font-specification:'Sitka Display';fill:#998966;fill-opacity:1;stroke-width:0.264583"
           y="97.798111"
           x="111.90056"
           id="tspan1128">VIII</tspan></text>
      <text
         xml:space="preserve"
         style="font-style:normal;font-weight:normal;font-size:4.93889px;line-height:1.25;font-family:sans-serif;fill:#998966;fill-opacity:1;stroke:none;stroke-width:0.264583"
         x="107.26357"
         y="112.56919"
         id="text1134"><tspan
           id="tspan1132"
           x="107.26357"
           y="112.56919"
           style="font-style:normal;font-variant:normal;font-weight:normal;font-stretch:normal;font-size:4.93889px;font-family:'Sitka Display';-inkscape-font-specification:'Sitka Display';fill:#998966;fill-opacity:1;stroke-width:0.264583">IX</tspan></text>
      <text
         id="text1140"
         y="63.506252"
         x="115.87827"
         style="font-style:normal;font-weight:normal;font-size:4.93889px;line-height:1.25;font-family:sans-serif;fill:#998966;fill-opacity:1;stroke:none;stroke-width:0.264583"
         xml:space="preserve"><tspan
           style="font-style:normal;font-variant:normal;font-weight:normal;font-stretch:normal;font-size:4.93889px;font-family:'Sitka Display';-inkscape-font-specification:'Sitka Display';fill:#998966;fill-opacity:1;stroke-width:0.264583"
           y="63.506252"
           x="115.87827"
           id="tspan1138">V</tspan></text>
      <text
         xml:space="preserve"
         style="font-style:normal;font-weight:normal;font-size:4.93889px;line-height:1.25;font-family:sans-serif;fill:#998966;fill-opacity:1;stroke:none;stroke-width:0.264583"
         x="121.45036"
         y="43.678085"
         id="text1146"><tspan
           id="tspan1144"
           x="121.45036"
           y="43.678085"
           style="font-style:normal;font-variant:normal;font-weight:normal;font-stretch:normal;font-size:4.93889px;font-family:'Sitka Display';-inkscape-font-specification:'Sitka Display';fill:#998966;fill-opacity:1;stroke-width:0.264583">III</tspan></text>
      <text
         id="text1150"
         y="53.563164"
         x="118.07368"
         style="font-style:normal;font-weight:normal;font-size:4.93889px;line-height:1.25;font-family:sans-serif;fill:#998966;fill-opacity:1;stroke:none;stroke-width:0.264583"
         xml:space="preserve"><tspan
           style="font-style:normal;font-variant:normal;font-weight:normal;font-stretch:normal;font-size:4.93889px;font-family:'Sitka Display';-inkscape-font-specification:'Sitka Display';fill:#998966;fill-opacity:1;stroke-width:0.264583"
           y="53.563164"
           x="118.07368"
           id="tspan1148">IV</tspan></text>
    </g>
    <g
       transform="matrix(-1,0,0,1,178.48946,0)"
       id="g1228">
      <text
         transform="scale(-1,1)"
         id="text1190"
         y="32.669796"
         x="-138.98412"
         style="font-style:normal;font-weight:normal;font-size:4.93889px;line-height:1.25;font-family:sans-serif;fill:#998966;fill-opacity:1;stroke:none;stroke-width:0.264583"
         xml:space="preserve"><tspan
           style="font-style:normal;font-variant:normal;font-weight:normal;font-stretch:normal;font-size:4.93889px;font-family:'Sitka Display';-inkscape-font-specification:'Sitka Display';fill:#998966;fill-opacity:1;stroke-width:0.264583"
           y="32.669796"
           x="-138.98412"
           id="tspan1188">I</tspan></text>
      <text
         transform="scale(-1,1)"
         xml:space="preserve"
         style="font-style:normal;font-weight:normal;font-size:4.93889px;line-height:1.25;font-family:sans-serif;fill:#998966;fill-opacity:1;stroke:none;stroke-width:0.264583"
         x="-133.13046"
         y="39.051056"
         id="text1194"><tspan
           id="tspan1192"
           x="-133.13046"
           y="39.051056"
           style="font-style:normal;font-variant:normal;font-weight:normal;font-stretch:normal;font-size:4.93889px;font-family:'Sitka Display';-inkscape-font-specification:'Sitka Display';fill:#998966;fill-opacity:1;stroke-width:0.264583">II</tspan></text>
      <text
         transform="scale(-1,1)"
         id="text1198"
         y="72.589218"
         x="-111.05774"
         style="font-style:normal;font-weight:normal;font-size:4.93889px;line-height:1.25;font-family:sans-serif;fill:#998966;fill-opacity:1;stroke:none;stroke-width:0.264583"
         xml:space="preserve"><tspan
           style="font-style:normal;font-variant:normal;font-weight:normal;font-stretch:normal;font-size:4.93889px;font-family:'Sitka Display';-inkscape-font-specification:'Sitka Display';fill:#998966;fill-opacity:1;stroke-width:0.264583"
           y="72.589218"
           x="-111.05774"
           id="tspan1196">VI</tspan></text>
      <text
         transform="scale(-1,1)"
         xml:space="preserve"
         style="font-style:normal;font-weight:normal;font-size:4.93889px;line-height:1.25;font-family:sans-serif;fill:#998966;fill-opacity:1;stroke:none;stroke-width:0.264583"
         x="-125.18504"
         y="76.375656"
         id="text1202"><tspan
           id="tspan1200"
           x="-125.18504"
           y="76.375656"
           style="font-style:normal;font-variant:normal;font-weight:normal;font-stretch:normal;font-size:4.93889px;font-family:'Sitka Display';-inkscape-font-specification:'Sitka Display';fill:#998966;fill-opacity:1;stroke-width:0.264583">VI</tspan></text>
      <text
         transform="scale(-1,1)"
         id="text1206"
         y="83.092079"
         x="-114.11026"
         style="font-style:normal;font-weight:normal;font-size:4.93889px;line-height:1.25;font-family:sans-serif;fill:#998966;fill-opacity:1;stroke:none;stroke-width:0.264583"
         xml:space="preserve"><tspan
           style="font-style:normal;font-variant:normal;font-weight:normal;font-stretch:normal;font-size:4.93889px;font-family:'Sitka Display';-inkscape-font-specification:'Sitka Display';fill:#998966;fill-opacity:1;stroke-width:0.264583"
           y="83.092079"
           x="-114.11026"
           id="tspan1204">VII</tspan></text>
      <text
         transform="scale(-1,1)"
         xml:space="preserve"
         style="font-style:normal;font-weight:normal;font-size:4.93889px;line-height:1.25;font-family:sans-serif;fill:#998966;fill-opacity:1;stroke:none;stroke-width:0.264583"
         x="-118.82196"
         y="97.798111"
         id="text1210"><tspan
           id="tspan1208"
           x="-118.82196"
           y="97.798111"
           style="font-style:normal;font-variant:normal;font-weight:normal;font-stretch:normal;font-size:4.93889px;font-family:'Sitka Display';-inkscape-font-specification:'Sitka Display';fill:#998966;fill-opacity:1;stroke-width:0.264583">VIII</tspan></text>
      <text
         transform="scale(-1,1)"
         id="text1214"
         y="112.56919"
         x="-111.63214"
         style="font-style:normal;font-weight:normal;font-size:4.93889px;line-height:1.25;font-family:sans-serif;fill:#998966;fill-opacity:1;stroke:none;stroke-width:0.264583"
         xml:space="preserve"><tspan
           style="font-style:normal;font-variant:normal;font-weight:normal;font-stretch:normal;font-size:4.93889px;font-family:'Sitka Display';-inkscape-font-specification:'Sitka Display';fill:#998966;fill-opacity:1;stroke-width:0.264583"
           y="112.56919"
           x="-111.63214"
           id="tspan1212">IX</tspan></text>
      <text
         transform="scale(-1,1)"
         xml:space="preserve"
         style="font-style:normal;font-weight:normal;font-size:4.93889px;line-height:1.25;font-family:sans-serif;fill:#998966;fill-opacity:1;stroke:none;stroke-width:0.264583"
         x="-118.67698"
         y="63.506252"
         id="text1218"><tspan
           id="tspan1216"
           x="-118.67698"
           y="63.506252"
           style="font-style:normal;font-variant:normal;font-weight:normal;font-stretch:normal;font-size:4.93889px;font-family:'Sitka Display';-inkscape-font-specification:'Sitka Display';fill:#998966;fill-opacity:1;stroke-width:0.264583">V</tspan></text>
      <text
         transform="scale(-1,1)"
         id="text1222"
         y="43.678085"
         x="-125.7886"
         style="font-style:normal;font-weight:normal;font-size:4.93889px;line-height:1.25;font-family:sans-serif;fill:#998966;fill-opacity:1;stroke:none;stroke-width:0.264583"
         xml:space="preserve"><tspan
           style="font-style:normal;font-variant:normal;font-weight:normal;font-stretch:normal;font-size:4.93889px;font-family:'Sitka Display';-inkscape-font-specification:'Sitka Display';fill:#998966;fill-opacity:1;stroke-width:0.264583"
           y="43.678085"
           x="-125.7886"
           id="tspan1220">III</tspan></text>
      <text
         transform="scale(-1,1)"
         xml:space="preserve"
         style="font-style:normal;font-weight:normal;font-size:4.93889px;line-height:1.25;font-family:sans-serif;fill:#998966;fill-opacity:1;stroke:none;stroke-width:0.264583"
         x="-122.54322"
         y="53.563164"
         id="text1226"><tspan
           id="tspan1224"
           x="-122.54322"
           y="53.563164"
           style="font-style:normal;font-variant:normal;font-weight:normal;font-stretch:normal;font-size:4.93889px;font-family:'Sitka Display';-inkscape-font-specification:'Sitka Display';fill:#998966;fill-opacity:1;stroke-width:0.264583">IV</tspan></text>
    </g>
  </g>
  <g
     style="display:none"
     id="layer13">
    <path
       transform="scale(0.26458334)"
       d="m 493.05859,122.27734 c -6.586,0.0742 -13.13098,2.2013 -19.63086,3.47071 -7.30533,1.4267 -14.59498,3.04436 -21.70703,5.24023 -8.41254,2.59741 -17.02194,5.04533 -24.69922,9.35547 -6.20141,3.48156 -11.84824,8.03569 -16.84179,13.09961 -4.94026,5.00988 -9.48571,10.59566 -12.72461,16.8418 -3.01482,5.81393 -4.47515,12.33902 -5.98828,18.71093 -2.21768,9.33879 -3.04347,18.95453 -4.49024,28.44336 -1.29241,8.47631 -1.46612,17.18256 -3.74218,25.44922 -1.02815,3.73425 -4.4336,10.74219 -4.4336,10.74219 0,0 3.92661,-0.15175 5.57784,-1.07895 1.44452,-0.81113 3.34599,-3.67496 3.34599,-3.67496 0,0 5.20471,-8.86859 7.48437,-13.47265 2.90022,-5.85734 5.89728,-11.73029 7.85938,-17.96485 2.86439,-9.10148 2.4108,-19.08096 5.61523,-28.06836 3.12991,-8.77833 6.73112,-17.89509 13.09766,-24.70117 6.31442,-6.75037 14.95264,-11.273 23.57813,-14.5957 8.40264,-3.23686 17.59305,-5.53996 26.57226,-4.86524 4.20941,0.31631 8.84754,1.28159 11.97461,4.11719 3.55642,3.22494 4.33542,8.59223 5.98828,13.09961 1.42768,3.89338 0.83179,8.69459 3.36914,11.97461 4.2981,5.55616 18.19447,10.61847 18.20703,10.62305 0.55951,-1.09195 1.09907,-2.19375 1.60938,-3.31055 3.50157,-7.66309 4.65557,-16.20208 6.57031,-24.45312 l -0.004,-0.004 c 0,0 -5.64734,-3.50755 -6.54687,-6.43164 -1.30923,-4.25592 3.21014,-8.68627 2.61914,-13.09961 -0.51836,-3.87075 -2.28994,-7.91975 -5.24023,-10.47852 -3.87432,-3.36016 -9.48639,-4.42253 -14.59571,-4.86523 -0.94256,-0.0817 -1.88336,-0.11412 -2.82422,-0.10352 z"
       style="display:inline;opacity:1;fill:#4075bf;fill-opacity:1;stroke:#3969ac;stroke-width:2;stroke-linecap:butt;stroke-linejoin:round;stroke-miterlimit:4;stroke-dasharray:none;stroke-opacity:1;filter:url(#filter2300)"
       id="path2284" />
    <text
       xml:space="preserve"
       style="font-style:normal;font-weight:normal;font-size:4.93889px;line-height:1.25;font-family:sans-serif;display:inline;fill:#ffffff;fill-opacity:1;stroke:none;stroke-width:0.264583"
       x="130.23917"
       y="39.051056"
       id="text2308"
       transform="translate(0.0330965)"><tspan
         id="tspan2306"
         x="130.23917"
         y="39.051056"
         style="font-style:normal;font-variant:normal;font-weight:normal;font-stretch:normal;font-size:4.93889px;font-family:'Sitka Display';-inkscape-font-specification:'Sitka Display';fill:#ffffff;fill-opacity:1;stroke-width:0.264583">II</tspan></text>
    <text
       id="text2316"
       y="57.695004"
       x="149.38193"
       style="font-style:normal;font-weight:normal;font-size:4.93889px;line-height:1.25;font-family:sans-serif;fill:#998966;fill-opacity:1;stroke:none;stroke-width:0.264583"
       xml:space="preserve"><tspan
         style="font-size:4.93889px;text-align:center;text-anchor:middle;fill:#998966;fill-opacity:1;stroke-width:0.264583"
         y="57.695004"
         x="149.38193"
         id="tspan2314">Substantia</tspan><tspan
         id="tspan2318"
         style="font-size:4.93889px;text-align:center;text-anchor:middle;fill:#998966;fill-opacity:1;stroke-width:0.264583"
         y="63.868614"
         x="149.38193">Gelatinosa</tspan></text>
    <path
       id="path2320"
       d="m 139.61632,46.772169 c 2.08884,1.044417 3.42299,2.304459 4.26259,3.389909 1.07417,1.388697 1.33887,2.491621 1.33887,2.491621"
       style="fill:none;stroke:#998966;stroke-width:0.264583;stroke-linecap:butt;stroke-linejoin:miter;stroke-miterlimit:4;stroke-dasharray:none;stroke-opacity:1;marker-start:url(#marker2324)" />
  </g>
  <g
     style="display:none"
     id="layer14">
    <path
       id="path2453"
       d="m 53.311031,118.19075 c -0.45459,-2.76516 -2.41391,-5.12347 -4.20109,-7.28189 -2.8286,-3.41618 -5.90418,-7.19504 -10.08263,-8.68226 -3.25543,-1.15869 -7.47181,-1.61287 -10.36269,0.28007 -2.76027,1.80742 -4.45995,5.67313 -4.2011,8.96233 0.27425,3.48484 3.5639,6.0654 5.88153,8.68226 2.54456,2.87309 5.11178,6.15445 8.68226,7.56197 2.52023,0.9935 5.55942,1.15825 8.12212,0.28008 2.06931,-0.7091 3.92281,-2.32124 5.04131,-4.2011 0.97363,-1.63639 1.42918,-3.72255 1.12029,-5.60146 z"
       style="fill:#bf4040;fill-opacity:1;stroke:#b03b3b;stroke-width:0.529167;stroke-linecap:butt;stroke-linejoin:miter;stroke-miterlimit:4;stroke-dasharray:none;stroke-opacity:1" />
    <text
       xml:space="preserve"
       style="font-style:normal;font-weight:normal;font-size:4.93889px;line-height:1.25;font-family:sans-serif;display:inline;fill:#998966;fill-opacity:1;stroke:none;stroke-width:0.264583"
       x="25.029583"
       y="84.441963"
       id="text2459"><tspan
         x="25.029583"
         y="84.441963"
         style="font-size:4.93889px;text-align:center;text-anchor:middle;fill:#998966;fill-opacity:1;stroke-width:0.264583"
         id="tspan2457">Anterolateral</tspan><tspan
         id="tspan2463"
         x="25.029583"
         y="90.615578"
         style="font-size:4.93889px;text-align:center;text-anchor:middle;fill:#998966;fill-opacity:1;stroke-width:0.264583">Tract</tspan></text>
    <path
       style="display:inline;fill:none;stroke:#998966;stroke-width:0.264583;stroke-linecap:butt;stroke-linejoin:miter;stroke-miterlimit:4;stroke-dasharray:none;stroke-opacity:1;marker-start:url(#marker2475)"
       d="M 27.19668,99.886845 C 25.54085,98.239938 24.66926,96.625007 24.21249,95.330992 23.62812,93.675446 23.72272,92.545159 23.72272,92.545159"
       id="path2471" />
  </g>
  <g
     style="display:none"
     id="layer15">
    <path
       id="path2686"
       d="m 123.28079,39.608284 c -1.63298,0.01932 -3.31424,0.41562 -4.753,1.18825 -1.37904,0.740559 -2.59555,1.867512 -3.46572,3.16866 -1.07384,1.605695 -1.68956,3.536485 -1.98042,5.446142 -0.21394,1.404631 -0.50851,3.025182 0.19802,4.25789 0.78304,1.366184 2.4303,2.204299 3.96083,2.574538 1.58016,0.382244 3.28481,-0.06279 4.85201,-0.495105 1.05338,-0.290577 2.13124,-0.686664 2.97063,-1.386289 1.18192,-0.98512 2.05802,-2.352643 2.67356,-3.762785 0.64743,-1.483204 1.04324,-3.135517 0.99021,-4.752997 -0.0606,-1.848866 -0.14521,-4.071929 -1.48531,-5.347118 -0.98036,-0.932873 -2.60763,-0.907198 -3.96081,-0.891186 z"
       style="fill:#95bf40;fill-opacity:1;stroke:#86ac3a;stroke-width:0.529167;stroke-linecap:butt;stroke-linejoin:miter;stroke-miterlimit:4;stroke-dasharray:none;stroke-opacity:1" />
    <text
       id="text2690"
       y="43.678085"
       x="121.45036"
       style="font-style:normal;font-weight:normal;font-size:4.93889px;line-height:1.25;font-family:sans-serif;display:inline;fill:#ffffff;fill-opacity:1;stroke:none;stroke-width:0.264583"
       xml:space="preserve"
       transform="translate(0.0330965)"><tspan
         style="font-style:normal;font-variant:normal;font-weight:normal;font-stretch:normal;font-size:4.93889px;font-family:'Sitka Display';-inkscape-font-specification:'Sitka Display';fill:#ffffff;fill-opacity:1;stroke-width:0.264583"
         y="43.678085"
         x="121.45036"
         id="tspan2688">III</tspan></text>
    <text
       xml:space="preserve"
       style="font-style:normal;font-weight:normal;font-size:4.93889px;line-height:1.25;font-family:sans-serif;display:inline;fill:#ffffff;fill-opacity:1;stroke:none;stroke-width:0.264583"
       x="118.07368"
       y="53.563164"
       id="text2694"
       transform="translate(0.0330965)"><tspan
         id="tspan2692"
         x="118.07368"
         y="53.563164"
         style="font-style:normal;font-variant:normal;font-weight:normal;font-stretch:normal;font-size:4.93889px;font-family:'Sitka Display';-inkscape-font-specification:'Sitka Display';fill:#ffffff;fill-opacity:1;stroke-width:0.264583">IV</tspan></text>
    <text
       id="text2706"
       y="70.106667"
       x="139.9937"
       style="font-style:normal;font-weight:normal;font-size:4.93889px;line-height:1.25;font-family:sans-serif;fill:#998966;fill-opacity:1;stroke:none;stroke-width:0.264583"
       xml:space="preserve"><tspan
         style="font-size:4.93889px;text-align:center;text-anchor:middle;fill:#998966;fill-opacity:1;stroke-width:0.264583"
         y="70.106667"
         x="139.9937"
         id="tspan2704">Nucleus</tspan><tspan
         id="tspan2708"
         style="font-size:4.93889px;text-align:center;text-anchor:middle;fill:#998966;fill-opacity:1;stroke-width:0.264583"
         y="76.280281"
         x="139.9937">Proprius</tspan></text>
    <path
       id="path2710"
       d="m 125.16218,57.432011 c 0,0 1.08922,4.059851 4.75299,7.822639"
       style="fill:none;stroke:#998966;stroke-width:0.264583;stroke-linecap:butt;stroke-linejoin:miter;stroke-miterlimit:4;stroke-dasharray:none;stroke-opacity:1;marker-start:url(#marker2714)" />
  </g>
  <g
     id="layer16"
     style="display:none">
    <path
       id="path1458"
       style="display:inline;opacity:0.995;fill:#bf4095;fill-opacity:1;stroke:#ac3a86;stroke-width:2;stroke-linecap:butt;stroke-linejoin:round;stroke-miterlimit:4;stroke-dasharray:none;stroke-opacity:1"
       d="m 450.42578,215.48438 c -1.96845,-0.0108 -3.94877,0.18412 -5.81445,0.45898 -9.44856,1.39199 -18.27972,6.26061 -26.19727,11.60156 -4.75392,3.20688 -12.35156,11.97656 -12.35156,11.97656 l -5.13867,7.91211 c 0,0 -0.51894,2.66808 -9.1e-4,3.83775 0.54547,1.23162 2.9931,2.71499 2.9931,2.71499 l -0.004,0.01 -0.004,0.01 c 6.34846,-2.58466 13.00637,-4.47507 19.74414,-5.50195 8.1405,-1.24067 16.51547,-0.52195 24.70118,0.37304 4.9909,0.54569 14.7539,3.03125 14.7539,3.03125 h 0.01 c 1.21182,-5.09117 4.39948,-9.99073 7.10547,-14.48047 0.15486,-0.25694 0.32428,-0.50284 0.48437,-0.75585 l -0.008,-0.0156 c 0,0 -5.02314,-14.83888 -11.11914,-18.8418 -2.62725,-1.72516 -5.87354,-2.31214 -9.1543,-2.33007 z"
       transform="scale(0.26458334)" />
    <text
       transform="translate(0.0330965)"
       xml:space="preserve"
       style="font-style:normal;font-weight:normal;font-size:4.93889px;line-height:1.25;font-family:sans-serif;display:inline;fill:#ffffff;fill-opacity:1;stroke:none;stroke-width:0.264583"
       x="115.87827"
       y="63.506252"
       id="text1475"><tspan
         id="tspan1473"
         x="115.87827"
         y="63.506252"
         style="font-style:normal;font-variant:normal;font-weight:normal;font-stretch:normal;font-size:4.93889px;font-family:'Sitka Display';-inkscape-font-specification:'Sitka Display';fill:#ffffff;fill-opacity:1;stroke-width:0.264583">V</tspan></text>
  </g>
  <g
     id="layer2"
     style="display:inline">
    <g
       id="g1088">
      <path
         id="path181"
         d="m 237.37651,93.3614 c 0.5218,-0.284563 1.0225,-0.736658 1.22532,-1.295336 0.19549,-0.538498 -0.26367,-1.164962 -0.10503,-1.715446 0.18294,-0.63482 0.56285,-1.318084 1.1553,-1.61042 0.65963,-0.325483 1.56087,-0.28411 2.20557,0.07002 0.48176,0.264626 0.82318,0.82335 0.92826,1.362866 0.10105,0.518865 -0.0275,1.120403 -0.33559,1.549927 -0.31328,0.436702 -0.86364,0.691378 -1.38338,0.828204 -0.53717,0.141417 -1.14624,-0.237163 -1.66593,-0.04101 -0.69644,0.262862 -1.32908,0.839754 -1.63942,1.516372 -0.13631,0.297191 -0.0929,0.658461 -0.035,0.980255 0.10284,0.571618 0.66517,1.610419 0.66517,1.610419 0,0 -0.87556,-0.585637 -1.1553,-1.015262 -0.23361,-0.358784 -0.38508,-1.225319 -0.38508,-1.225319 0,0 -0.76086,-0.09477 -1.08528,-0.280073 -0.48723,-0.27831 -1.19031,-1.19031 -1.19031,-1.19031 0,0 1.08077,0.607561 1.68044,0.665173 0.37819,0.03633 0.78671,-0.02815 1.12027,-0.210055 z"
         style="fill:#bf5940;fill-opacity:1;stroke:#ac513a;stroke-width:0.396875;stroke-linecap:butt;stroke-linejoin:miter;stroke-miterlimit:4;stroke-dasharray:none;stroke-opacity:1" />
      <circle
         r="0.56936908"
         cy="90.6287"
         cx="240.6946"
         id="path1084"
         style="fill:#723627;fill-opacity:1;stroke:none;stroke-width:0.264583;stroke-opacity:1" />
    </g>
    <path
       style="fill:none;stroke:#ac513a;stroke-width:0.396875;stroke-linecap:round;stroke-linejoin:miter;stroke-miterlimit:4;stroke-dasharray:none;stroke-opacity:1"
       d="m 238.39178,96.617253 c 1.59463,1.242836 2.93946,2.917973 4.08131,4.629087 1.23989,1.85806 1.86216,4.06547 2.94076,6.02157 1.17907,2.13831 2.20726,4.42588 3.851,6.23162 1.61511,1.77429 3.73829,3.02058 5.74149,4.34113 3.06823,2.02264 9.577,5.46142 9.577,5.46142"
       id="path1090" />
    <path
       style="fill:none;stroke:#ac503a;stroke-width:0.396875;stroke-linecap:butt;stroke-linejoin:miter;stroke-miterlimit:4;stroke-dasharray:none;stroke-opacity:1"
       d="m 135.26229,40.796531 c 0,0 1.788,-2.193147 2.57454,-3.366701 1.53176,-2.285445 2.75268,-4.764716 4.15887,-7.129492 1.30194,-2.189462 2.16921,-4.724597 3.96083,-6.535367 1.58476,-1.601691 3.63133,-2.779346 5.7432,-3.564746 2.38032,-0.885236 4.98611,-1.214907 7.52557,-1.188249 2.61554,0.02746 5.28066,0.451538 7.72362,1.38629 2.46387,0.942757 4.66456,2.522013 6.73341,4.15887 1.75713,1.390222 3.4429,2.93534 4.75299,4.752994 1.38096,1.915978 2.21389,4.177137 3.16867,6.337326 1.25882,2.848075 2.40961,5.750695 3.3667,8.713822 0.88094,2.727351 1.37294,5.567168 2.17845,8.317741 0.72166,2.464263 1.09559,5.102077 2.3765,7.327533 1.2826,2.228396 3.23111,4.030834 5.14908,5.743199 2.29551,2.049431 4.87218,3.788573 7.52557,5.347118 2.64789,1.555315 5.60473,2.522108 8.31774,3.960829 3.11074,1.64964 6.38674,3.114995 9.10991,5.347121 2.53118,2.074761 4.02571,5.226781 6.53536,7.327532 2.5244,2.113095 8.41251,5.173938 8.41251,5.173938"
       id="path1092" />
    <path
       style="fill:#ac503a;fill-opacity:1;stroke:#ac503a;stroke-width:0.396875;stroke-linecap:round;stroke-linejoin:miter;stroke-miterlimit:4;stroke-dasharray:none;stroke-opacity:1"
       d="m 135.26229,40.796531 -1.88068,0.09617 0.94524,0.280072 -0.42011,0.525137 0.7702,-0.210055 v 0.735193 z"
       id="path1096" />
  </g>
  <g
     style="display:none"
     id="layer4">
    <path
       id="path1115"
       d="m 114.47168,58.359853 -1.88068,0.09617 0.94524,0.280072 -0.42011,0.525137 0.7702,-0.210055 v 0.735193 z"
       style="display:inline;fill:#733aac;fill-opacity:1;stroke:#733aac;stroke-width:0.396875;stroke-linecap:round;stroke-linejoin:miter;stroke-miterlimit:4;stroke-dasharray:none;stroke-opacity:1" />
    <g
       transform="translate(1.8659522,-1.3648426)"
       id="g1107"
       style="display:inline">
      <path
         id="path1100"
         d="m 126.94302,45.424318 0.50763,-1.242823 c 0,0 -0.37415,-0.308111 -0.45511,-0.525138 -0.0673,-0.180406 -1e-5,-0.577649 -1e-5,-0.577649 l -0.7702,-0.682677 -0.56015,-0.210055 0.54265,-0.140036 0.15752,-0.490128 0.21005,0.630164 0.57766,0.525137 c 0,0 0.34478,-0.392457 0.57765,-0.490128 0.23773,-0.09971 0.7702,-0.07002 0.7702,-0.07002 v -0.7702 l -0.33259,-0.630164 0.50764,0.122533 0.36759,-0.22756 -0.12253,0.665172 -0.07,0.840219 c 0,0 0.5669,0.116436 0.75269,0.315082 0.16008,0.171146 0.22756,0.665173 0.22756,0.665173 l 0.59516,0.01751 0.7702,-0.29758 -0.19255,0.437617 0.26256,0.472621 -0.85771,-0.280071 -0.57766,-2e-6 c 0,0 0.0275,0.210821 -0.009,0.306329 -0.0661,0.174272 -0.35884,0.428861 -0.35884,0.428861 l 0.42012,0.49013 0.57765,0.297578 -0.49013,0.140036 -0.33257,0.402603 -0.12253,-0.560145 -0.45512,-0.507632 c 0,0 -0.31445,0.04746 -0.47262,0.04376 -0.14725,-0.0034 -0.43761,-0.06127 -0.43761,-0.06127 z"
         style="fill:#8040bf;fill-opacity:1;stroke:#733aac;stroke-width:0.396875;stroke-linecap:butt;stroke-linejoin:miter;stroke-miterlimit:4;stroke-dasharray:none;stroke-opacity:1" />
      <circle
         r="0.56936908"
         cy="43.395821"
         cx="128.40511"
         id="circle1104"
         style="fill:#4d2772;fill-opacity:1;stroke:none;stroke-width:0.264583;stroke-opacity:1" />
    </g>
    <path
       id="path1122"
       d="m 128.80897,44.059476 c 0,0 -2.26642,2.417342 -3.66043,3.27665 -0.84122,0.518552 -1.88163,0.630161 -2.75894,1.085001 -1.33288,0.691029 -2.78704,1.334467 -3.76279,2.475519 -1.20656,1.410964 -1.34295,3.481866 -2.3017,5.07165 -0.52085,0.863663 -1.85343,2.391558 -1.85343,2.391558"
       style="fill:none;fill-opacity:1;stroke:#733aac;stroke-width:0.264583px;stroke-linecap:butt;stroke-linejoin:miter;stroke-opacity:1" />
  </g>
  <g
     id="layer3"
     style="display:none">
    <path
       style="fill:none;stroke:#3a86ac;stroke-width:0.396875;stroke-linecap:butt;stroke-linejoin:miter;stroke-miterlimit:4;stroke-dasharray:none;stroke-opacity:1"
       d="m 111.11462,65.228224 c 0,0 -1.73931,3.503066 -2.88499,5.076479 -1.5814,2.17182 -3.46444,4.127261 -5.44613,5.941244 -2.882819,2.63885 -5.713042,5.596255 -9.30795,7.129492 -3.194674,1.362536 -6.866289,1.050696 -10.298152,1.58433 -4.622129,0.718714 -9.429957,0.685257 -13.8629,2.178457 -3.694752,1.244547 -7.259059,3.103032 -10.298155,5.545159 -2.444679,1.964472 -4.242669,4.631801 -6.139283,7.129492 -1.583351,2.085153 -2.896424,4.362383 -4.356913,6.535363 -2.345425,3.48962 -3.094543,9.08969 -7.075609,10.44232 -1.1374,0.38644 -3.420584,-1.13437 -3.420584,-1.13437"
       id="path1108" />
    <path
       style="fill:none;fill-opacity:1;stroke:#3a86ac;stroke-width:0.396875;stroke-linecap:butt;stroke-linejoin:miter;stroke-miterlimit:4;stroke-dasharray:1.19062, 1.19062;stroke-dashoffset:0;stroke-opacity:1;marker-start:url(#marker1114)"
       d="m 32.222748,65.097623 c 0,0 -0.324185,4.794374 -0.53612,7.187495 -0.228304,2.577955 -0.659965,5.138951 -0.792165,7.723617 -0.165231,3.230454 -0.121045,6.471619 0,9.70403 0.09909,2.646114 0.210275,5.301658 0.594124,7.921657 0.401685,2.741738 1.024629,5.454308 1.782371,8.119698 0.70794,2.49021 1.288021,5.08093 2.574539,7.32753 0.558646,0.97554 2.178457,2.57454 2.178457,2.57454"
       id="path1110" />
    <text
       xml:space="preserve"
       style="font-style:normal;font-weight:normal;font-size:4.23333px;line-height:1.25;font-family:sans-serif;fill:#3a86ac;fill-opacity:1;stroke:none;stroke-width:0.264583"
       x="32.61026"
       y="56.014576"
       id="text1430"><tspan
         id="tspan1428"
         x="32.61026"
         y="56.014576"
         style="font-style:normal;font-variant:normal;font-weight:normal;font-stretch:normal;font-size:4.23333px;font-family:'Source Sans Pro';-inkscape-font-specification:'Source Sans Pro';text-align:center;text-anchor:middle;fill:#3a86ac;fill-opacity:1;stroke-width:0.264583">to the</tspan><tspan
         x="32.61026"
         y="61.34758"
         style="font-style:normal;font-variant:normal;font-weight:normal;font-stretch:normal;font-size:4.23333px;font-family:'Source Sans Pro';-inkscape-font-specification:'Source Sans Pro';text-align:center;text-anchor:middle;fill:#3a86ac;fill-opacity:1;stroke-width:0.264583"
         id="tspan1432">thalamus</tspan></text>
    <g
       id="g1113"
       transform="translate(-15.8284,19.803906)">
      <path
         style="fill:#4095bf;fill-opacity:1;stroke:#3a86ac;stroke-width:0.396875;stroke-linecap:butt;stroke-linejoin:miter;stroke-miterlimit:4;stroke-dasharray:none;stroke-opacity:1"
         d="m 126.94302,45.424318 0.50763,-1.242823 c 0,0 -0.37415,-0.308111 -0.45511,-0.525138 -0.0673,-0.180406 -1e-5,-0.577649 -1e-5,-0.577649 l -0.7702,-0.682677 -0.56015,-0.210055 0.54265,-0.140036 0.15752,-0.490128 0.21005,0.630164 0.57766,0.525137 c 0,0 0.34478,-0.392457 0.57765,-0.490128 0.23773,-0.09971 0.7702,-0.07002 0.7702,-0.07002 v -0.7702 l -0.33259,-0.630164 0.50764,0.122533 0.36759,-0.22756 -0.12253,0.665172 -0.07,0.840219 c 0,0 0.5669,0.116436 0.75269,0.315082 0.16008,0.171146 0.22756,0.665173 0.22756,0.665173 l 0.59516,0.01751 0.7702,-0.29758 -0.19255,0.437617 0.26256,0.472621 -0.85771,-0.280071 -0.57766,-2e-6 c 0,0 0.0275,0.210821 -0.009,0.306329 -0.0661,0.174272 -0.35884,0.428861 -0.35884,0.428861 l 0.42012,0.49013 0.57765,0.297578 -0.49013,0.140036 -0.33257,0.402603 -0.12253,-0.560145 -0.45512,-0.507632 c 0,0 -0.31445,0.04746 -0.47262,0.04376 -0.14725,-0.0034 -0.43761,-0.06127 -0.43761,-0.06127 z"
         id="path1109" />
      <circle
         style="fill:#275972;fill-opacity:1;stroke:none;stroke-width:0.264583;stroke-opacity:1"
         id="circle1111"
         cx="128.40511"
         cy="43.395821"
         r="0.56936908" />
    </g>
  </g>
</svg>
